<?xml version="1.0" encoding="iso-8859-1"?>
<!-- Generator: Adobe Illustrator 19.0.0, SVG Export Plug-In . SVG Version: 6.00 Build 0)  -->
<svg version="1.1" id="Capa_1" xmlns="http://www.w3.org/2000/svg" xmlns:xlink="http://www.w3.org/1999/xlink" x="0px" y="0px"
	 viewBox="0 0 416.392 416.392" style="enable-background:new 0 0 416.392 416.392;" xml:space="preserve">
<path style="fill:#1185E0;" d="M361.273,416.392L361.273,416.392l-345.339-0.522c-8.882,0-15.673-6.792-15.673-15.673L0.784,54.857
	c0-8.882,6.792-15.673,15.673-15.673h197.486c8.882,0,15.673,6.792,15.673,15.673s-6.792,15.673-15.673,15.673H32.131
	l-0.522,313.992l313.992,0.522V203.233c0-8.882,6.792-15.673,15.673-15.673c8.882,0,15.673,6.792,15.673,15.673v197.486
	c0,4.18-1.567,8.359-4.702,10.971C369.633,414.824,365.453,416.392,361.273,416.392z"/>
<path style="fill:#4DCFE0;" d="M415.608,13.061c0-0.522-0.522-1.045-0.522-1.567c0-0.522-0.522-1.045-0.522-1.567
	c0-0.522-0.522-1.045-1.045-1.567c0-0.522-0.522-0.522-0.522-1.045c-1.045-1.567-2.612-3.135-4.18-4.18
	c-0.522,0-0.522-0.522-1.045-0.522c-0.522-0.522-1.045-0.522-1.567-1.045c-0.522,0-1.045-0.522-1.567-0.522
	c-0.522,0-1.045-0.522-1.567-0.522c-1.045,0-2.09-0.522-3.135-0.522H287.608c-8.882,0-15.673,6.792-15.673,15.673
	s6.792,15.673,15.673,15.673h75.233L187.82,206.89c-6.269,6.269-6.269,16.196,0,21.943c3.135,3.135,7.314,4.702,10.971,4.702
	c3.657,0,7.837-1.567,10.971-4.702l175.02-175.02v75.755c0,8.882,6.792,15.673,15.673,15.673s15.673-6.792,15.673-15.673V16.196
	C416.131,15.151,416.131,14.106,415.608,13.061z"/>
<g>
</g>
<g>
</g>
<g>
</g>
<g>
</g>
<g>
</g>
<g>
</g>
<g>
</g>
<g>
</g>
<g>
</g>
<g>
</g>
<g>
</g>
<g>
</g>
<g>
</g>
<g>
</g>
<g>
</g>
</svg>
